<?xml version="1.0" encoding="UTF-8"?>
<svg version="1.1" xmlns="http://www.w3.org/2000/svg" width="500" height="500">
<path d="M0 0 C1.35898269 -0.02156601 2.71782697 -0.05565452 4.07617188 -0.10253906 C15.55886524 -0.49502621 15.55886524 -0.49502621 19.75708008 2.72143555 C20.73974609 4.37060547 20.73974609 4.37060547 21.73364258 6.4050293 C22.2221167 7.248479 22.71059082 8.09192871 23.21386719 8.9609375 C24.88576099 11.8710675 26.47226563 14.81586251 28.04614258 17.7800293 C28.59592773 18.80225586 29.14571289 19.82448242 29.7121582 20.87768555 C31.05879136 23.38359421 32.39906082 25.8926879 33.73364258 28.4050293 C36.80784522 24.41062762 39.19420216 20.12969251 41.59692383 15.71362305 C44.97519382 9.6537691 48.88125717 4.31176543 54.73364258 0.4050293 C58.0234375 -0.08081055 58.0234375 -0.08081055 61.71411133 -0.0559082 C62.36817459 -0.05499176 63.02223785 -0.05407532 63.69612122 -0.0531311 C65.07027501 -0.04711793 66.44441711 -0.03144055 67.81835938 -0.0065918 C69.92537417 0.03010299 72.03063728 0.03442602 74.13793945 0.03393555 C84.43819253 0.10957925 84.43819253 0.10957925 86.73364258 2.4050293 C87.68136595 7.92510186 87.87820983 13.32363501 87.86303711 18.91308594 C87.86566559 20.12692207 87.86566559 20.12692207 87.86834717 21.36528015 C87.87271485 24.01527104 87.86984599 26.66519409 87.86645508 29.31518555 C87.86712951 31.17028313 87.8681007 33.02538062 87.86935425 34.88047791 C87.87082428 38.75789231 87.86869879 42.6352836 87.86401367 46.51269531 C87.85831282 51.47111123 87.86160207 56.42947306 87.86758614 61.387887 C87.87120711 65.21496485 87.87004617 69.04202996 87.86745834 72.8691082 C87.86679353 74.69706669 87.86760184 76.52502636 87.8699379 78.35298347 C87.87249011 80.91080903 87.86858791 83.46854805 87.86303711 86.02636719 C87.86506134 86.77409393 87.86708557 87.52182068 87.86917114 88.29220581 C87.85135485 92.74561167 87.61641422 97.0342507 86.73364258 101.4050293 C84.73364258 102.6550293 84.73364258 102.6550293 82.73364258 103.4050293 C82.23864258 104.8900293 82.23864258 104.8900293 81.73364258 106.4050293 C81.07364258 106.4050293 80.41364258 106.4050293 79.73364258 106.4050293 C78.74364258 108.3850293 78.74364258 108.3850293 77.73364258 110.4050293 C67.83364258 110.4050293 57.93364258 110.4050293 47.73364258 110.4050293 C46.59208038 108.1219049 46.58029886 106.77023625 46.52832031 104.23071289 C46.49840248 102.93960098 46.49840248 102.93960098 46.46788025 101.62240601 C46.45116776 100.69215607 46.43445526 99.76190613 46.41723633 98.8034668 C46.39645523 97.85186676 46.37567413 96.90026672 46.35426331 95.91983032 C46.28876125 92.87330498 46.22987978 89.82669186 46.17114258 86.7800293 C46.12795798 84.71752014 46.08434372 82.65501993 46.0402832 80.5925293 C45.93307918 75.53011975 45.83181356 70.46762174 45.73364258 65.4050293 C45.1071582 66.04311523 44.48067383 66.68120117 43.83520508 67.33862305 C43.01793945 68.16491211 42.20067383 68.99120117 41.35864258 69.8425293 C40.5465332 70.66624023 39.73442383 71.48995117 38.89770508 72.33862305 C35.36220578 75.71457816 33.10708161 75.56571247 28.29614258 75.5925293 C27.14243164 75.60670898 25.9887207 75.62088867 24.80004883 75.63549805 C21.73364258 75.4050293 21.73364258 75.4050293 18.73364258 73.4050293 C18.71382324 74.13616943 18.69400391 74.86730957 18.67358398 75.62060547 C18.57811344 78.94493199 18.46852291 82.26864916 18.35864258 85.5925293 C18.32770508 86.74301758 18.29676758 87.89350586 18.26489258 89.07885742 C18.2262207 90.19067383 18.18754883 91.30249023 18.14770508 92.44799805 C18.11628418 93.46917725 18.08486328 94.49035645 18.05249023 95.54248047 C17.64470127 99.20352615 16.86981499 102.23871969 14.26098633 104.91674805 C13.73633789 105.30475586 13.21168945 105.69276367 12.67114258 106.0925293 C9.71946849 108.07824658 9.71946849 108.07824658 8.73364258 110.4050293 C-1.16635742 110.4050293 -11.06635742 110.4050293 -21.26635742 110.4050293 C-22.39970908 108.13832597 -22.38979554 106.92114055 -22.38661194 104.40609741 C-22.3879866 103.57034683 -22.38936127 102.73459625 -22.39077759 101.8735199 C-22.38718231 100.95498734 -22.38358704 100.03645477 -22.37988281 99.09008789 C-22.38002884 98.12419235 -22.38017487 97.15829681 -22.38032532 96.16313171 C-22.3796268 92.95988749 -22.3718372 89.7567009 -22.36401367 86.5534668 C-22.36214928 84.33672111 -22.36072548 82.11997501 -22.35972595 79.90322876 C-22.35590246 74.06049467 -22.3460736 68.21778533 -22.33502197 62.37506104 C-22.32480424 56.41630386 -22.32022755 50.4575427 -22.31518555 44.4987793 C-22.3044512 32.80085174 -22.28737677 21.10294257 -22.26635742 9.4050293 C-21.63213867 9.11885742 -20.99791992 8.83268555 -20.34448242 8.5378418 C-17.85074542 7.17847388 -17.30203618 5.9942262 -16.26635742 3.4050293 C-15.60635742 3.4050293 -14.94635742 3.4050293 -14.26635742 3.4050293 C-14.26635742 2.7450293 -14.26635742 2.0850293 -14.26635742 1.4050293 C-10.05343114 -0.70143385 -4.63478017 0.05528898 0 0 Z " fill="#7843E6" transform="translate(264.266357421875,194.594970703125)"/>
<path d="M0 0 C0.70923615 -0.00350464 1.41847229 -0.00700928 2.14920044 -0.01062012 C4.49336536 -0.01942235 6.8372285 -0.01359435 9.18139648 -0.00683594 C10.80899616 -0.00818287 12.43659543 -0.01012364 14.06419373 -0.01263428 C17.47463818 -0.01558337 20.88497787 -0.01129428 24.29541016 -0.00195312 C28.672728 0.00945038 33.04980084 0.00287497 37.42710972 -0.00909805 C40.78734697 -0.01631476 44.14752584 -0.01402977 47.50776482 -0.00884247 C49.12215135 -0.00750591 50.73654314 -0.00915389 52.35092354 -0.01380157 C54.60388422 -0.01886476 56.85644426 -0.01116027 59.109375 0 C60.39272232 0.00159119 61.67606964 0.00318237 62.99830627 0.00482178 C65.98999023 0.25878906 65.98999023 0.25878906 67.98999023 2.25878906 C68.5597114 5.30735276 68.59657126 8.413715 68.73999023 11.50878906 C68.79541992 12.35570312 68.85084961 13.20261719 68.90795898 14.07519531 C69.15554751 18.89942027 69.08661228 22.78554006 66.98999023 27.25878906 C64.05249023 29.94628906 64.05249023 29.94628906 60.98999023 32.25878906 C60.59126709 32.79544189 60.19254395 33.33209473 59.78173828 33.88500977 C56.90962321 36.08713423 53.72729175 35.62549118 50.25952148 35.55175781 C49.5091008 35.54751297 48.75868011 35.54326813 47.98551941 35.53889465 C45.59080998 35.52211357 43.1969449 35.48446396 40.80249023 35.44628906 C39.17815344 35.43124142 37.55380344 35.41755315 35.92944336 35.40527344 C31.94930076 35.37221211 27.96978861 35.320435 23.98999023 35.25878906 C23.98999023 36.24878906 23.98999023 37.23878906 23.98999023 38.25878906 C25.32960815 38.23522339 25.32960815 38.23522339 26.69628906 38.21118164 C30.0117778 38.16003468 33.32684699 38.12243094 36.64257812 38.09399414 C38.07721575 38.07891318 39.51180732 38.05844526 40.94628906 38.0324707 C43.00914882 37.99605469 45.07139881 37.97905663 47.13452148 37.96582031 C48.99620972 37.94225464 48.99620972 37.94225464 50.89550781 37.91821289 C53.98999023 38.25878906 53.98999023 38.25878906 55.88916016 39.49633789 C58.08238819 43.00774024 57.50142884 47.11311995 57.48999023 51.13378906 C57.51834961 52.03226563 57.54670898 52.93074219 57.57592773 53.85644531 C57.58950347 58.45183162 57.5069251 60.58160439 54.64624023 64.32910156 C51.98999023 66.25878906 51.98999023 66.25878906 48.98999023 67.25878906 C48.98999023 68.24878906 48.98999023 69.23878906 48.98999023 70.25878906 C46.52878182 71.48939327 44.73222157 71.46456136 41.98217773 71.57519531 C40.99604492 71.61708984 40.00991211 71.65898437 38.99389648 71.70214844 C37.96135742 71.74146484 36.92881836 71.78078125 35.86499023 71.82128906 C34.30458008 71.88606445 34.30458008 71.88606445 32.71264648 71.95214844 C30.13856495 72.05841786 27.56438515 72.16045489 24.98999023 72.25878906 C24.49499023 74.23878906 24.49499023 74.23878906 23.98999023 76.25878906 C38.17999023 76.25878906 52.36999023 76.25878906 66.98999023 76.25878906 C68.9274233 80.1336552 69.22181279 81.12463756 69.00170898 85.17285156 C68.9546582 86.09839844 68.90760742 87.02394531 68.85913086 87.97753906 C68.79918945 88.93660156 68.73924805 89.89566406 68.67749023 90.88378906 C68.62915039 91.85058594 68.58081055 92.81738281 68.53100586 93.81347656 C68.13642249 100.96592456 68.13642249 100.96592456 66.98999023 103.25878906 C65.99999023 103.25878906 65.00999023 103.25878906 63.98999023 103.25878906 C63.49499023 104.74378906 63.49499023 104.74378906 62.98999023 106.25878906 C62.32999023 106.25878906 61.66999023 106.25878906 60.98999023 106.25878906 C59.99999023 108.23878906 59.99999023 108.23878906 58.98999023 110.25878906 C49.50653008 110.30506725 40.02310862 110.34063519 30.53956032 110.36241341 C26.13627772 110.37286424 21.73307221 110.38704702 17.32983398 110.40966797 C13.08289199 110.43135018 8.83602428 110.44334789 4.58903122 110.44854355 C2.96625982 110.45224764 1.34349262 110.45948052 -0.27924728 110.47024918 C-2.54685093 110.48470286 -4.81414504 110.48676961 -7.08178711 110.48583984 C-8.37418304 110.49028107 -9.66657898 110.49472229 -10.99813843 110.4992981 C-14.01000977 110.25878906 -14.01000977 110.25878906 -16.01000977 108.25878906 C-16.88116745 104.34590555 -17.1360658 100.59266504 -17.1394043 96.59350586 C-17.14248596 95.49816528 -17.14556763 94.40282471 -17.14874268 93.27429199 C-17.14678894 92.09741821 -17.14483521 90.92054443 -17.14282227 89.70800781 C-17.14441345 88.47256226 -17.14600464 87.2371167 -17.14764404 85.9642334 C-17.15021578 81.9582128 -17.14434415 77.95229497 -17.13500977 73.94628906 C-17.1335923 73.26921024 -17.13217484 72.59213142 -17.13071442 71.89453506 C-17.11193383 63.19390412 -17.07400596 54.49348922 -17.02636719 45.79296875 C-17.01174819 42.6343922 -17.00551139 39.47598778 -17.00415039 36.31738281 C-17.00109708 32.36893266 -16.97143364 28.42200614 -16.91033936 24.47402954 C-16.8857336 22.50423485 -16.88909835 20.53415284 -16.89331055 18.56420898 C-16.74967397 12.14650907 -16.257283 8.13352647 -11.5847168 3.52172852 C-7.49038394 0.23801008 -5.1876384 0.00642802 0 0 Z " fill="#7744E6" transform="translate(165.010009765625,194.7412109375)"/>
<path d="M0 0 C0.01030746 1.22553085 0.02061493 2.45106171 0.03123474 3.71372986 C0.12878792 15.23621173 0.23150434 26.75863742 0.33933926 38.28102779 C0.39461692 44.20548027 0.44804452 50.12993763 0.49731445 56.05444336 C0.54488674 61.76676959 0.59722668 67.47903367 0.65294075 73.19128609 C0.67339675 75.37586492 0.69210433 77.56046081 0.70907402 79.7450695 C0.73304645 82.7935697 0.76311042 85.84195122 0.79467773 88.89038086 C0.8004332 89.80315796 0.80618866 90.71593506 0.81211853 91.65637207 C0.46138939 95.64738524 0.46138939 95.64738524 2 99 C4.20794411 99.12406815 6.41984486 99.17802278 8.63110352 99.20532227 C9.32375305 99.21522186 10.01640259 99.22512146 10.7300415 99.23532104 C13.02962779 99.2670203 15.32923477 99.29172651 17.62890625 99.31640625 C19.21932018 99.33696852 20.80972855 99.35796479 22.40013123 99.37937927 C26.59389763 99.43467509 30.78771395 99.4840511 34.98156738 99.53222656 C39.25793928 99.58238691 43.53423834 99.63810144 47.81054688 99.69335938 C56.20696973 99.80103274 64.60345338 99.90245716 73 100 C72.01 101.98 72.01 101.98 71 104 C61.51653985 104.04627819 52.03311839 104.08184612 42.54957008 104.10362434 C38.14628749 104.11407518 33.74308198 104.12825796 29.33984375 104.15087891 C25.09290176 104.17256112 20.84603404 104.18455883 16.59904099 104.18975449 C14.97626958 104.19345858 13.35350238 104.20069146 11.73076248 104.21146011 C9.46315883 104.2259138 7.19586472 104.22798054 4.92822266 104.22705078 C3.63582672 104.231492 2.34343079 104.23593323 1.01187134 104.24050903 C-2 104 -2 104 -4 102 C-4.87115769 98.08711648 -5.12605604 94.33387598 -5.12939453 90.3347168 C-5.1324913 89.23939636 -5.13558807 88.14407593 -5.13877869 87.01556396 C-5.13680984 85.83867004 -5.134841 84.66177612 -5.1328125 83.44921875 C-5.13426773 82.21359192 -5.13572296 80.97796509 -5.13722229 79.70489502 C-5.1390815 76.3831151 -5.13603234 73.06143357 -5.12917709 69.73966599 C-5.12500207 67.68851515 -5.12204339 65.63736535 -5.11929321 63.58621216 C-5.07134064 32.07830183 -5.07134064 32.07830183 -4.73553467 17.99551392 C-4.68853412 15.98180628 -4.6539417 13.9678212 -4.61962891 11.95385742 C-4.58401855 10.78185791 -4.5484082 9.6098584 -4.51171875 8.40234375 C-4.48553467 7.41741943 -4.45935059 6.43249512 -4.43237305 5.41772461 C-4.00165318 3.00924417 -2.94009141 0 0 0 Z " fill="#FA03FE" transform="translate(153,201)"/>
<path d="M0 0 C1.84259399 0.01232666 1.84259399 0.01232666 3.72241211 0.02490234 C4.37930527 0.02581879 5.03619843 0.02673523 5.71299744 0.02767944 C7.09910322 0.03371257 8.48519614 0.04945047 9.87109375 0.07421875 C11.99584803 0.11077261 14.11886036 0.11523783 16.24389648 0.11474609 C26.64204237 0.19062636 26.64204237 0.19062636 28.93725586 2.48583984 C29.88497923 8.0059124 30.08182312 13.40444555 30.06665039 18.99389648 C30.06840271 19.80312057 30.07015503 20.61234467 30.07196045 21.4460907 C30.07632813 24.09608158 30.07345927 26.74600464 30.07006836 29.39599609 C30.07074279 31.25109368 30.07171398 33.10619117 30.07296753 34.96128845 C30.07443756 38.83870286 30.07231207 42.71609415 30.06762695 46.59350586 C30.0619261 51.55192178 30.06521535 56.5102836 30.07119942 61.46869755 C30.07482039 65.29577539 30.07365945 69.12284051 30.07107162 72.94991875 C30.07040682 74.77787724 30.07121512 76.6058369 30.07355118 78.43379402 C30.07610339 80.99161957 30.07220119 83.54935859 30.06665039 86.10717773 C30.06867462 86.85490448 30.07069885 87.60263123 30.07278442 88.37301636 C30.0549548 92.8297549 29.97638929 97.14206889 28.93725586 101.48583984 C26.95725586 102.47583984 26.95725586 102.47583984 24.93725586 103.48583984 C24.44225586 54.97583984 24.44225586 54.97583984 23.93725586 5.48583984 C9.08725586 4.99083984 9.08725586 4.99083984 -6.06274414 4.48583984 C-3.06274414 0.48583984 -3.06274414 0.48583984 0 0 Z " fill="#3AF3FD" transform="translate(322.062744140625,194.51416015625)"/>
<path d="M0 0 C0.01030746 1.2004747 0.02061493 2.4009494 0.03123474 3.63780212 C0.12878885 14.92482664 0.23150537 26.21179381 0.33933926 37.49872494 C0.3946164 43.30210869 0.44804392 49.10549744 0.49731445 54.90893555 C0.54488751 60.50455332 0.59722748 66.10010766 0.65294075 71.6956501 C0.6733964 73.83557122 0.69210404 75.97550975 0.70907402 78.11546135 C0.73304723 81.10169681 0.76311108 84.08781117 0.79467773 87.07397461 C0.8004332 87.96805023 0.80618866 88.86212585 0.81211853 89.78329468 C0.4724588 93.7071124 0.4724588 93.7071124 2 97 C3.99782126 97.15825258 6.00088834 97.25119171 8.00390625 97.31640625 C9.21884766 97.35830078 10.43378906 97.40019531 11.68554688 97.44335938 C12.96494141 97.48267578 14.24433594 97.52199219 15.5625 97.5625 C16.84576172 97.60568359 18.12902344 97.64886719 19.45117188 97.69335938 C22.63399853 97.799848 25.81690674 97.90185962 29 98 C28.34 99.32 27.68 100.64 27 102 C17.1 102 7.2 102 -3 102 C-4.13335166 99.73329668 -4.12343812 98.51611125 -4.12025452 96.00106812 C-4.12162918 95.16531754 -4.12300385 94.32956696 -4.12442017 93.4684906 C-4.12082489 92.54995804 -4.11722961 91.63142548 -4.11352539 90.68505859 C-4.11367142 89.71916306 -4.11381744 88.75326752 -4.1139679 87.75810242 C-4.11326937 84.55485819 -4.10547978 81.35167161 -4.09765625 78.1484375 C-4.09579186 75.93169181 -4.09436805 73.71494571 -4.09336853 71.49819946 C-4.08954504 65.65546537 -4.07971617 59.81275603 -4.06866455 53.97003174 C-4.05844682 48.01127456 -4.05387013 42.0525134 -4.04882812 36.09375 C-4.03809377 24.39582244 -4.02101935 12.69791328 -4 1 C-1 0 -1 0 0 0 Z " fill="#FE12FE" transform="translate(246,203)"/>
<path d="M0 0 C0.70923615 -0.00350464 1.41847229 -0.00700928 2.14920044 -0.01062012 C4.49336536 -0.01942235 6.8372285 -0.01359435 9.18139648 -0.00683594 C10.80899616 -0.00818287 12.43659543 -0.01012364 14.06419373 -0.01263428 C17.47463818 -0.01558337 20.88497787 -0.01129428 24.29541016 -0.00195312 C28.672728 0.00945038 33.04980084 0.00287497 37.42710972 -0.00909805 C40.78734697 -0.01631476 44.14752584 -0.01402977 47.50776482 -0.00884247 C49.12215135 -0.00750591 50.73654314 -0.00915389 52.35092354 -0.01380157 C54.60388422 -0.01886476 56.85644426 -0.01116027 59.109375 0 C60.39272232 0.00159119 61.67606964 0.00318237 62.99830627 0.00482178 C65.98999023 0.25878906 65.98999023 0.25878906 67.98999023 2.25878906 C68.5597114 5.30735276 68.59657126 8.413715 68.73999023 11.50878906 C68.79541992 12.35570312 68.85084961 13.20261719 68.90795898 14.07519531 C69.15384952 18.86633521 69.15617383 22.84202511 66.98999023 27.25878906 C65.50499023 27.75378906 65.50499023 27.75378906 63.98999023 28.25878906 C63.65999023 20.33878906 63.32999023 12.41878906 62.98999023 4.25878906 C53.50644402 4.36675388 44.02297061 4.47880921 34.53956032 4.59812832 C30.13634394 4.65336417 25.73312093 4.70678523 21.32983398 4.75610352 C17.08283979 4.8037373 12.83592767 4.85607975 8.58903122 4.91172981 C6.96629242 4.93215784 5.34353112 4.95087018 3.72075272 4.96786308 C1.45315642 4.99189722 -0.81428419 5.021953 -3.08178711 5.0534668 C-4.37418304 5.06901108 -5.66657898 5.08455536 -6.99813843 5.10057068 C-9.93257227 5.0535383 -9.93257227 5.0535383 -12.01000977 6.25878906 C-9.42004493 0.28194714 -6.16650625 0.00764094 0 0 Z " fill="#2DEDFC" transform="translate(165.010009765625,194.7412109375)"/>
<path d="M0 0 C0.33 0 0.66 0 1 0 C1.01030746 0.59912704 1.02061493 1.19825409 1.03123474 1.8155365 C1.13906965 8.02810088 1.25368544 14.24051341 1.37231445 20.45288086 C1.41573739 22.77413773 1.45740684 25.09542808 1.49731445 27.41674805 C1.5548394 30.74538278 1.61858425 34.07384785 1.68359375 37.40234375 C1.70030624 38.44712387 1.71701874 39.49190399 1.73423767 40.56834412 C1.75418289 41.52926468 1.77412811 42.49018524 1.79467773 43.48022461 C1.81022202 44.33071884 1.8257663 45.18121307 1.84178162 46.05747986 C1.78944829 48.00523798 1.78944829 48.00523798 3 49 C4.99782126 49.15825258 7.00088834 49.25119171 9.00390625 49.31640625 C10.82631836 49.37924805 10.82631836 49.37924805 12.68554688 49.44335938 C14.60463867 49.50233398 14.60463867 49.50233398 16.5625 49.5625 C17.84576172 49.60568359 19.12902344 49.64886719 20.45117188 49.69335938 C23.63399853 49.799848 26.81690674 49.90185962 30 50 C29.34 51.32 28.68 52.64 28 54 C18.1 54 8.2 54 -2 54 C-3.18273763 51.63452473 -3.13903738 50.17656798 -3.16113281 47.5378418 C-3.17074036 46.61315598 -3.1803479 45.68847015 -3.19024658 44.73576355 C-3.19449646 43.73370377 -3.19874634 42.73164398 -3.203125 41.69921875 C-3.20882507 40.6706929 -3.21452515 39.64216705 -3.22039795 38.58247375 C-3.22985619 36.40273063 -3.23638519 34.22297314 -3.24023438 32.04321289 C-3.24993017 28.71149648 -3.28094216 25.3803994 -3.3125 22.04882812 C-3.31903093 19.93229533 -3.32428105 17.81575813 -3.328125 15.69921875 C-3.3404718 14.70323166 -3.3528186 13.70724457 -3.36553955 12.68107605 C-3.33753348 3.96371733 -3.33753348 3.96371733 0 0 Z " fill="#FE11FE" transform="translate(314,251)"/>
<path d="M0 0 C1.35898269 -0.02156601 2.71782697 -0.05565452 4.07617188 -0.10253906 C15.56293124 -0.49516519 15.56293124 -0.49516519 19.72583008 2.70581055 C20.44336053 3.91143997 21.10566623 5.15042259 21.73364258 6.4050293 C22.2530542 7.25814697 22.77246582 8.11126465 23.30761719 8.99023438 C25.11933062 11.9698375 26.83766292 14.99019259 28.54614258 18.0300293 C29.14362305 19.06643555 29.74110352 20.1028418 30.35668945 21.1706543 C31.20263672 22.66725586 31.20263672 22.66725586 32.06567383 24.1940918 C32.578479 25.09853027 33.09128418 26.00296875 33.61962891 26.93481445 C34.73364258 29.4050293 34.73364258 29.4050293 34.73364258 33.4050293 C33.08364258 33.4050293 31.43364258 33.4050293 29.73364258 33.4050293 C29.35554443 32.69894531 28.97744629 31.99286133 28.58789062 31.26538086 C26.86904092 28.06009376 25.14515101 24.85754443 23.42114258 21.6550293 C22.82624023 20.54385742 22.23133789 19.43268555 21.6184082 18.2878418 C21.04155273 17.21791992 20.46469727 16.14799805 19.87036133 15.0456543 C19.34144287 14.06113281 18.81252441 13.07661133 18.26757812 12.06225586 C17.76137939 11.18537109 17.25518066 10.30848633 16.73364258 9.4050293 C16.31985352 8.63674805 15.90606445 7.8684668 15.47973633 7.0769043 C12.74976798 4.46297488 10.3576994 4.95402429 6.65942383 5.0144043 C5.633675 5.02289398 5.633675 5.02289398 4.58720398 5.03155518 C2.40613359 5.05392113 0.22671504 5.10411164 -1.95385742 5.1550293 C-3.43365138 5.1750943 -4.91347112 5.19334508 -6.39331055 5.2097168 C-10.01819502 5.25378456 -13.64211498 5.32281108 -17.26635742 5.4050293 C-16.93635742 4.7450293 -16.60635742 4.0850293 -16.26635742 3.4050293 C-15.60635742 3.4050293 -14.94635742 3.4050293 -14.26635742 3.4050293 C-14.26635742 2.7450293 -14.26635742 2.0850293 -14.26635742 1.4050293 C-10.05343114 -0.70143385 -4.63478017 0.05528898 0 0 Z " fill="#28F2FD" transform="translate(264.266357421875,194.594970703125)"/>
<path d="M0 0 C0.99 0 1.98 0 3 0 C3 1.32 3 2.64 3 4 C3.66 4.33 4.32 4.66 5 5 C4.67 6.32 4.34 7.64 4 9 C18.19 9 32.38 9 47 9 C48.93743307 12.87486614 49.23182256 13.8658485 49.01171875 17.9140625 C48.94114258 19.30238281 48.94114258 19.30238281 48.86914062 20.71875 C48.80919922 21.6778125 48.74925781 22.636875 48.6875 23.625 C48.63916016 24.59179688 48.59082031 25.55859375 48.54101562 26.5546875 C48.14643225 33.7071355 48.14643225 33.7071355 47 36 C46.01 36 45.02 36 44 36 C43.97494385 35.3387915 43.9498877 34.67758301 43.92407227 33.99633789 C43.80846898 31.01817695 43.68558246 28.0403608 43.5625 25.0625 C43.52318359 24.02158203 43.48386719 22.98066406 43.44335938 21.90820312 C43.40146484 20.91884766 43.35957031 19.92949219 43.31640625 18.91015625 C43.26141968 17.53549194 43.26141968 17.53549194 43.20532227 16.13305664 C43.22996136 14.0179272 43.22996136 14.0179272 42 13 C38.89914779 12.83958807 35.81812421 12.74036598 32.71484375 12.68359375 C31.78402481 12.66281265 30.85320587 12.64203156 29.8941803 12.62062073 C26.90869818 12.55502069 23.92312516 12.49619198 20.9375 12.4375 C18.91861024 12.3943247 16.8997298 12.35071075 14.88085938 12.30664062 C9.92066703 12.19932871 4.96038291 12.09809112 0 12 C0 8.04 0 4.08 0 0 Z " fill="#16FDFE" transform="translate(185,262)"/>
<path d="M0 0 C0.99 0 1.98 0 3 0 C3.33 2.31 3.66 4.62 4 7 C5.33961792 6.97643433 5.33961792 6.97643433 6.70629883 6.95239258 C10.02178756 6.90124561 13.33685675 6.86364188 16.65258789 6.83520508 C18.08722552 6.82012411 19.52181708 6.7996562 20.95629883 6.77368164 C23.01915859 6.73726563 25.08140858 6.72026757 27.14453125 6.70703125 C29.00621948 6.68346558 29.00621948 6.68346558 30.90551758 6.65942383 C34 7 34 7 35.90576172 8.2331543 C37.29956914 10.48370858 37.37308248 11.92199563 37.36328125 14.5625 C37.36263672 15.44164062 37.36199219 16.32078125 37.36132812 17.2265625 C37.34521484 18.14179688 37.32910156 19.05703125 37.3125 20 C37.31572266 20.91523438 37.31894531 21.83046875 37.32226562 22.7734375 C37.26721939 29.59917092 37.26721939 29.59917092 35 33 C34.34 33 33.68 33 33 33 C32.970271 32.10692139 32.970271 32.10692139 32.93994141 31.19580078 C32.84483874 28.50507847 32.73510158 25.81514852 32.625 23.125 C32.5940625 22.18785156 32.563125 21.25070313 32.53125 20.28515625 C32.47324219 18.94130859 32.47324219 18.94130859 32.4140625 17.5703125 C32.3826416 16.74289551 32.3512207 15.91547852 32.31884766 15.06298828 C32.17400863 12.78013915 32.17400863 12.78013915 30 11 C26.89243985 10.62677573 26.89243985 10.62677573 23.2421875 10.5859375 C22.57913605 10.56657135 21.91608459 10.5472052 21.23294067 10.5272522 C19.11375823 10.46744046 16.9945215 10.42106612 14.875 10.375 C13.43877831 10.33682155 12.00257955 10.29776989 10.56640625 10.2578125 C7.04448064 10.16173875 3.52238392 10.07771358 0 10 C0 6.7 0 3.4 0 0 Z " fill="#22FEFE" transform="translate(185,226)"/>
<path d="M0 0 C12.54 0 25.08 0 38 0 C36 4 36 4 34 5 C31.44637396 5.08658569 28.9204558 5.11562516 26.3671875 5.09765625 C25.23943405 5.09553383 25.23943405 5.09553383 24.08889771 5.09336853 C21.6842249 5.08776465 19.27964473 5.07521157 16.875 5.0625 C15.24609509 5.0574855 13.61718873 5.0529225 11.98828125 5.04882812 C7.99215173 5.03779397 3.99609158 5.02052679 0 5 C0 3.35 0 1.7 0 0 Z " fill="#F225FC" transform="translate(189,225)"/>
<path d="M0 0 C0.33 0.66 0.66 1.32 1 2 C0.01 3.485 0.01 3.485 -1 5 C-1.30876873 6.92347793 -1.30876873 6.92347793 -1.2784729 9.04325867 C-1.28963638 9.8635556 -1.30079987 10.68385254 -1.31230164 11.52900696 C-1.31446182 12.42524277 -1.31662201 13.32147858 -1.31884766 14.24487305 C-1.32889328 15.19140747 -1.3389389 16.13794189 -1.34928894 17.11315918 C-1.38021307 20.24600611 -1.39718177 23.37876724 -1.4140625 26.51171875 C-1.43276672 28.68220259 -1.45233956 30.8526791 -1.4727478 33.02314758 C-1.52415381 38.73922411 -1.56373422 44.45532424 -1.60089111 50.17150879 C-1.64087769 56.00307086 -1.69199439 61.83453405 -1.7421875 67.66601562 C-1.83904706 79.11060771 -1.92341973 90.55525552 -2 102 C-2.33 102 -2.66 102 -3 102 C-3.73208823 98.06221552 -4.12605255 94.33804545 -4.12939453 90.3347168 C-4.1324913 89.23939636 -4.13558807 88.14407593 -4.13877869 87.01556396 C-4.13680984 85.83867004 -4.134841 84.66177612 -4.1328125 83.44921875 C-4.13426773 82.21359192 -4.13572296 80.97796509 -4.13722229 79.70489502 C-4.1390815 76.3831151 -4.13603234 73.06143357 -4.12917709 69.73966599 C-4.12500207 67.68851515 -4.12204339 65.63736535 -4.11929321 63.58621216 C-4.07134064 32.07830183 -4.07134064 32.07830183 -3.73553467 17.99551392 C-3.68853412 15.98180628 -3.6539417 13.9678212 -3.61962891 11.95385742 C-3.58401855 10.78185791 -3.5484082 9.6098584 -3.51171875 8.40234375 C-3.48553467 7.41741943 -3.45935059 6.43249512 -3.43237305 5.41772461 C-2.93592737 2.64172149 -2.17834838 1.72478241 0 0 Z " fill="#FE90FE" transform="translate(152,201)"/>
<path d="M0 0 C6 8 6 8 6 11 C9.31544299 12.10514766 12.20410111 12.32107631 15.6875 12.5625 C16.86699219 12.64628906 18.04648437 12.73007812 19.26171875 12.81640625 C20.16535156 12.87699219 21.06898438 12.93757813 22 13 C19.6963704 15.86397193 18.57134096 16.91583242 14.87109375 17.4609375 C13.73800781 17.43257813 12.60492188 17.40421875 11.4375 17.375 C10.30183594 17.36210937 9.16617187 17.34921875 7.99609375 17.3359375 C5 17 5 17 2 15 C1.67 23.25 1.34 31.5 1 40 C0.67 40 0.34 40 0 40 C0 26.8 0 13.6 0 0 Z " fill="#FC3FFE" transform="translate(281,253)"/>
<path d="M0 0 C3 3 3 3 3.36076355 5.10710144 C3.35410172 5.91762466 3.34743988 6.72814789 3.34057617 7.56323242 C3.34034958 8.48396042 3.34012299 9.40468842 3.33988953 10.35331726 C3.32440567 11.34402725 3.30892181 12.33473724 3.29296875 13.35546875 C3.28872391 14.37224197 3.28447906 15.3890152 3.28010559 16.43659973 C3.26329997 19.68716812 3.22564382 22.9371187 3.1875 26.1875 C3.17245562 28.38996501 3.15876679 30.59243973 3.14648438 32.79492188 C3.11339036 38.19682572 3.06317223 43.59836872 3 49 C1.515 49.495 1.515 49.495 0 50 C0 33.5 0 17 0 0 Z " fill="#05FDFE" transform="translate(278,248)"/>
<path d="M0 0 C8.25 0 16.5 0 25 0 C25 0.99 25 1.98 25 3 C22.44276771 4.27861615 20.63262898 4.11336609 17.7734375 4.09765625 C16.7421875 4.09443359 15.7109375 4.09121094 14.6484375 4.08789062 C13.02808594 4.07532227 13.02808594 4.07532227 11.375 4.0625 C9.74304688 4.05573242 9.74304688 4.05573242 8.078125 4.04882812 C5.38536211 4.03701776 2.69270812 4.02054778 0 4 C0 2.68 0 1.36 0 0 Z " fill="#FF0DFF" transform="translate(189,262)"/>
<path d="M0 0 C0.66 0 1.32 0 2 0 C0.65184136 2.84189309 -0.8842329 5.36352149 -2.6875 7.9375 C-6.59303935 13.70419761 -9.77919913 19.83473916 -13 26 C-13.66 26 -14.32 26 -15 26 C-13.60744187 21.31529163 -11.628215 17.21034828 -9.1875 13 C-8.85685547 12.40960938 -8.52621094 11.81921875 -8.18554688 11.2109375 C-5.82279076 7.09312069 -3.22335868 3.49507982 0 0 Z " fill="#E758FA" transform="translate(314,199)"/>
<path d="M0 0 C1 3 1 3 0.109375 5.41015625 C-0.33921875 6.28542969 -0.7878125 7.16070312 -1.25 8.0625 C-1.68828125 8.94035156 -2.1265625 9.81820313 -2.578125 10.72265625 C-4 13 -4 13 -7 15 C-5.45454854 9.52067211 -2.84456788 4.88570819 0 0 Z " fill="#26ECFD" transform="translate(314,247)"/>
</svg>
